<svg width="32" height="32" viewBox="0 0 32 32" fill="none" xmlns="http://www.w3.org/2000/svg">
<path d="M1.2375 2.83125C1.14375 2.90625 1.0375 3.05 1 3.14375C0.9625 3.25625 0.9375 4.38749 0.9375 6.22499C0.9375 8.65625 0.95 9.1625 1.03125 9.30625C1.18125 9.6 1.51875 9.65625 1.7375 9.41875C1.875 9.275 1.875 9.2625 1.875 6.44375V3.61249L2.05 3.64999C2.8625 3.81249 6.65625 4.24999 8.53125 4.39999C11.3938 4.63124 12.2063 4.65624 16 4.65624C19.7938 4.65624 20.6063 4.63124 23.4688 4.39999C25.3438 4.24999 29.1375 3.81249 29.9563 3.64999L30.125 3.61249V6.45V9.29375L30.2688 9.425C30.5063 9.65 30.8188 9.6 30.9688 9.30625C31.05 9.1625 31.0625 8.65 31.0625 6.21874C31.0625 3.07499 31.0563 3.00625 30.7313 2.79375C30.5125 2.65 30.2688 2.65625 29.0188 2.8375C24.8688 3.44375 20.45 3.74999 16 3.74999C11.55 3.74999 7.13125 3.44375 2.98125 2.8375C1.65625 2.65 1.45625 2.65 1.2375 2.83125Z" fill="white"/>
<path d="M3.26876 5C2.82501 5.26875 2.84376 5.0375 2.82501 9.9375C2.81251 12.3625 2.82501 14.5 2.84376 14.6875C2.88126 14.975 2.92501 15.0687 3.12501 15.2562C3.25626 15.3875 3.45001 15.4937 3.55626 15.5125C3.66251 15.525 4.18126 15.4875 4.70626 15.425C8.68126 14.9562 11.7 14.7875 16 14.7875C20.3063 14.7875 23.0813 14.9437 27.3125 15.425C28.4375 15.5562 28.6563 15.525 28.9313 15.2125C29.0625 15.0625 29.125 14.9187 29.1563 14.675C29.175 14.4937 29.1875 12.3625 29.175 9.9375C29.1563 5.0375 29.175 5.26875 28.7313 5C28.475 4.84375 28.3 4.84375 26.6875 5.025C22.9125 5.45625 20.3563 5.59375 16 5.59375C11.6438 5.59375 9.08751 5.45625 5.31251 5.025C3.70001 4.84375 3.52501 4.84375 3.26876 5ZM4.98126 5.9375C8.80626 6.3875 11.4438 6.53125 16 6.53125C20.5563 6.53125 23.1938 6.3875 27.0188 5.9375C27.6 5.86875 28.1125 5.8125 28.1625 5.8125C28.2375 5.8125 28.25 6.4625 28.25 10.1875V14.5625H28.075C27.9813 14.5625 27.5625 14.5187 27.1563 14.4687C25.9375 14.3187 23.1563 14.075 21.2813 13.9562C18.8188 13.8 13.1813 13.8 10.7188 13.9562C8.84376 14.075 6.06251 14.3187 4.84376 14.4687C4.43751 14.5187 4.01876 14.5625 3.92501 14.5625H3.75001V10.1875C3.75001 6.4625 3.76251 5.8125 3.83751 5.8125C3.88751 5.8125 4.40001 5.86875 4.98126 5.9375Z" fill="white"/>
<path d="M1.2 10.8875C0.950002 11.0125 0.931252 11.25 0.950002 14.325C0.968752 17.175 0.968752 17.2437 1.1 17.4187C1.34375 17.75 1.53125 17.7625 2.9 17.5625C6.9 16.975 11.8125 16.625 16 16.625C20.2125 16.625 25.0313 16.9687 29.1188 17.5625C30.3563 17.7437 30.4 17.75 30.6188 17.6437C31.0625 17.425 31.0625 17.4437 31.0625 14.2125C31.0625 12.3625 31.0375 11.2625 31 11.1437C30.9375 10.9687 30.7188 10.8125 30.5375 10.8125C30.4938 10.8125 30.3813 10.8687 30.2875 10.9437L30.125 11.0687V13.9125C30.125 15.5687 30.1 16.75 30.0688 16.75C30.0375 16.75 29.5375 16.6812 28.9563 16.6C24.9688 16.0187 20.25 15.6875 16 15.6875C11.75 15.6875 7.03125 16.0187 3.04375 16.6C2.4625 16.6812 1.9625 16.75 1.93125 16.75C1.9 16.75 1.875 15.5687 1.875 13.9125V11.0687L1.7125 10.9437C1.53125 10.8 1.4125 10.7875 1.2 10.8875Z" fill="white"/>
<path d="M6.17996 19.0687C5.71514 19.2125 5.23855 19.6687 5.00908 20.1875C4.86787 20.4937 4.85022 20.625 4.83257 21.4125L4.80903 22.2937L4.203 22.325C3.66758 22.35 3.54402 22.3812 3.20864 22.5562C2.77324 22.7812 2.51436 23.0687 2.29666 23.5625C2.14956 23.8937 2.14368 23.95 2.12603 25.325L2.10249 26.75H1.77888C1.39644 26.75 1.09636 26.8812 1.00222 27.1C0.966919 27.1937 0.9375 27.6 0.9375 28.0937C0.9375 28.9 0.943384 28.9312 1.09048 29.1187L1.24346 29.3125H16H30.7565L30.9095 29.1187C31.0566 28.9312 31.0625 28.9 31.0625 28.0937C31.0625 27.6 31.0331 27.1937 30.9978 27.1C30.9036 26.8812 30.6036 26.75 30.2152 26.75H29.8857V25.6375C29.8799 23.925 29.774 23.4437 29.2797 22.9187C28.909 22.525 28.4972 22.3562 27.7911 22.325L27.1851 22.2937L27.1674 21.4125C27.1498 20.6125 27.138 20.5 26.9909 20.175C26.8085 19.7625 26.4555 19.375 26.073 19.175C25.8083 19.0375 25.7318 19.0312 24.1549 19.0125C22.2957 18.9937 22.1956 19.0125 21.6543 19.4437L21.3425 19.7L21.1542 19.5125C21.0542 19.4125 20.8541 19.2625 20.707 19.1812C20.4481 19.0375 20.3952 19.0312 18.7889 19.0125C17.2415 18.9937 17.1179 19 16.8178 19.125C16.6354 19.1937 16.3824 19.35 16.2471 19.475L16 19.7L15.7529 19.475C15.2763 19.0375 15.0762 19 13.3229 19C11.5695 19 11.3695 19.0375 10.8929 19.475L10.6458 19.7L10.3986 19.475C9.91616 19.0375 9.72788 19 7.95098 19.0062C7.08606 19.0062 6.29175 19.0375 6.17996 19.0687ZM9.67493 20.0812C9.80437 20.1625 9.96323 20.3312 10.0397 20.4687C10.1574 20.6937 10.175 20.8062 10.175 21.5062V22.3L9.5749 22.325C8.91003 22.35 8.56877 22.475 8.15691 22.825L7.92744 23.0125L7.77446 22.8625C7.38025 22.4812 6.88013 22.3125 6.1623 22.3125H5.70337V21.5937C5.70337 20.825 5.76809 20.5437 6.01521 20.2562C6.26821 19.9625 6.39766 19.9437 7.96863 19.9437C9.38662 19.9375 9.44546 19.9437 9.67493 20.0812ZM14.9233 20.0062C15.0115 20.0437 15.1527 20.1312 15.2233 20.2062C15.494 20.475 15.5528 20.675 15.5764 21.5062L15.5999 22.3L14.9645 22.325C14.2466 22.3562 13.8465 22.4937 13.5523 22.8187C13.4641 22.9187 13.3641 23 13.3346 23C13.3052 23 13.1758 22.9 13.0463 22.7875C12.7168 22.4812 12.3638 22.3687 11.6519 22.3312L11.0458 22.2937L11.0694 21.5062C11.0929 20.675 11.1518 20.475 11.4224 20.2062C11.493 20.1312 11.6225 20.0437 11.7048 20.0062C11.9108 19.9187 14.7115 19.9187 14.9233 20.0062ZM20.2775 20.0062C20.5129 20.1 20.707 20.3062 20.8306 20.5937C20.9188 20.7937 20.9424 21 20.9424 21.5687V22.2937L20.3128 22.325C19.7833 22.35 19.6244 22.3812 19.3538 22.5187C19.1714 22.6125 18.9478 22.7687 18.8595 22.8687L18.6889 23.0562L18.4535 22.8375C18.077 22.475 17.7651 22.3562 17.0708 22.325L16.4648 22.2937L16.4825 21.4437C16.5001 20.6687 16.5119 20.575 16.6354 20.3875C16.9179 19.9687 17.0355 19.9437 18.6595 19.9375C19.5538 19.9375 20.1775 19.9625 20.2775 20.0062ZM25.8024 20.0937C26.1966 20.3437 26.2966 20.625 26.2966 21.5437V22.2937L25.6671 22.325C24.961 22.3562 24.6668 22.4625 24.255 22.8437L24.0196 23.0562L23.8254 22.8437C23.5136 22.5 23.1253 22.3562 22.431 22.325L21.825 22.3V21.5437C21.825 20.6312 21.925 20.3437 22.3133 20.0937C22.5604 19.9375 22.5663 19.9375 24.0549 19.9375C25.5435 19.9375 25.5494 19.9375 25.8024 20.0937ZM7.01545 23.4375C7.13313 23.5187 7.28611 23.7062 7.3626 23.8437C7.49204 24.0812 7.49792 24.1687 7.51558 25.4187L7.53911 26.75H5.26209H2.98506L3.00859 25.3875C3.02625 24.0312 3.02625 24.0187 3.18511 23.7687C3.27336 23.625 3.44988 23.4625 3.59697 23.3812C3.83821 23.25 3.9147 23.25 5.32681 23.2625C6.78599 23.2812 6.80364 23.2812 7.01545 23.4375ZM12.2814 23.3812C12.4344 23.4625 12.5992 23.6187 12.6933 23.7687C12.8522 24.0187 12.8522 24.025 12.8698 25.3875L12.8875 26.75H10.6516H8.40991V25.4375C8.40991 24 8.43933 23.85 8.7394 23.5562C8.83355 23.4625 8.99241 23.3625 9.08655 23.325C9.18657 23.2875 9.84556 23.2562 10.6399 23.2562C11.9343 23.25 12.0402 23.2562 12.2814 23.3812ZM17.618 23.3687C18.1711 23.6375 18.2358 23.8687 18.2358 25.4687V26.75H15.9941H13.7583L13.7759 25.3562L13.7936 23.9562L13.9642 23.725C14.2761 23.2875 14.429 23.25 16 23.25C17.2179 23.25 17.4121 23.2687 17.618 23.3687ZM22.9723 23.3687C23.2429 23.5 23.4371 23.7062 23.5254 23.9562C23.5666 24.0625 23.5901 24.6687 23.5901 25.4437V26.75H21.3542H19.1184V25.4687C19.1184 23.8687 19.1831 23.6375 19.7362 23.3687C19.9421 23.2687 20.1363 23.25 21.3542 23.25C22.5722 23.25 22.7664 23.2687 22.9723 23.3687ZM28.4913 23.4375C28.9149 23.7437 28.9443 23.875 28.9443 25.4V26.75H26.7026H24.4668L24.4844 25.3875L24.5021 24.0187L24.6668 23.7562C24.9669 23.275 25.0963 23.25 26.8026 23.2625C28.2618 23.2812 28.2795 23.2812 28.4913 23.4375ZM30.1799 28.0312V28.375H16H1.82007V28.0312V27.6875H16H30.1799V28.0312Z" fill="white"/>
</svg>
